<?xml version="1.0" encoding="utf-8"?>
<svg version="1.1" id="Layer_1" xmlns="http://www.w3.org/2000/svg" xmlns:xlink="http://www.w3.org/1999/xlink" x="0px" y="0px"
	 viewBox="0 0 710.2 135.2" style="enable-background:new 0 0 710.2 135.2;" xml:space="preserve">
<style type="text/css">
	.st0{fill:#EF59A5;}
	.st1{fill:#FD9D60;}
	.st2{fill:#A053CF;}
</style>
<g>
	<path class="st0" d="M116.4,42.4V27.3c0-7.3-8-11.9-14.3-8.2L77.6,33.3v32.2c0,8.6-4.5,16.5-11.9,20.8l-26.8,15.6v23.7
		c0,7.3,8,11.9,14.3,8.2l51.3-29.8c7.4-4.3,11.9-12.2,11.9-20.8V71c0-4.5-2.4-8.6-6.2-10.8l5.3-13C116.1,45.7,116.4,44,116.4,42.4z"
		/>
	<path class="st1" d="M77.6,65.5V33.3L50.7,48.9c-7.4,4.3-11.9,12.2-11.9,20.8v32.2l26.8-15.6C73,82,77.6,74.1,77.6,65.5z"/>
	<path class="st2" d="M0,92.8l0,15.1c0,7.3,8,11.9,14.3,8.2l24.5-14.2l0-32.2c0-8.6,4.6-16.5,12-20.8l26.8-15.6l0-23.7
		c0-7.3-8-11.9-14.3-8.2L12,31.1C4.6,35.4,0,43.3,0,51.9l0,12.3"/>
</g>
<path class="st2" d="M166.8,89.4V40.7h21.9c3.1,0,5.9,0.7,8.4,2c2.6,1.3,4.5,3.2,6,5.6c1.4,2.3,2.2,5,2.2,7.9c0,3.1-0.7,5.8-2.2,8.3
	c-1.4,2.4-3.4,4.3-5.9,5.7c-2.5,1.4-5.3,2.1-8.5,2.1h-10.6v17.1H166.8z M193.8,89.4l-12.4-22l12.1-1.7l13.8,23.7H193.8z M178.1,63.3
	h9.6c1.2,0,2.3-0.3,3.1-0.8c0.9-0.6,1.6-1.3,2.1-2.3c0.5-1,0.8-2.1,0.8-3.3s-0.3-2.3-0.8-3.3c-0.6-1-1.4-1.7-2.4-2.2
	c-1-0.5-2.3-0.8-3.8-0.8h-8.6V63.3z"/>
<path class="st2" d="M230.7,90.1c-4.1,0-7.6-0.8-10.6-2.4c-3-1.7-5.4-3.9-7-6.8c-1.7-2.9-2.5-6.1-2.5-9.8c0-2.8,0.5-5.4,1.4-7.8
	c0.9-2.4,2.2-4.4,3.9-6.1c1.7-1.8,3.6-3.1,5.9-4c2.3-1,4.8-1.5,7.6-1.5c2.6,0,5,0.5,7.1,1.4c2.2,0.9,4.1,2.2,5.6,3.9
	c1.6,1.7,2.8,3.6,3.6,5.9c0.8,2.3,1.2,4.8,1.1,7.4l-0.1,3h-29.4l-1.6-6.3h22l-1.2,1.3V67c-0.1-1.2-0.5-2.2-1.1-3.1
	c-0.6-0.9-1.4-1.6-2.4-2.2c-1-0.5-2.2-0.8-3.5-0.8c-1.8,0-3.4,0.4-4.7,1.1c-1.3,0.7-2.2,1.7-2.9,3.1c-0.6,1.3-1,3-1,5
	c0,2,0.4,3.8,1.3,5.4c0.9,1.5,2.1,2.6,3.8,3.5c1.7,0.8,3.6,1.3,5.9,1.3c1.6,0,3-0.2,4.2-0.7c1.3-0.5,2.6-1.3,4-2.4l5.2,7.4
	c-1.4,1.3-3,2.3-4.6,3.1c-1.6,0.8-3.3,1.4-5,1.7C234.1,89.9,232.4,90.1,230.7,90.1z"/>
<path class="st2" d="M266.3,90.1c-3.6,0-6.8-0.6-9.6-1.7c-2.7-1.2-4.9-2.7-6.5-4.7l6.8-5.8c1.4,1.4,3.1,2.5,4.9,3.2
	c1.8,0.6,3.5,1,5.2,1c0.6,0,1.2-0.1,1.7-0.2c0.5-0.1,0.9-0.3,1.3-0.6c0.4-0.3,0.6-0.6,0.8-0.9c0.2-0.4,0.3-0.8,0.3-1.3
	c0-0.9-0.4-1.6-1.3-2.2c-0.4-0.2-1.1-0.5-2.1-0.8s-2.2-0.7-3.8-1.1c-2.2-0.6-4.1-1.2-5.7-1.9c-1.6-0.8-2.9-1.7-3.9-2.7
	c-0.9-1-1.6-2-2.2-3.2c-0.5-1.2-0.8-2.6-0.8-4c0-1.7,0.4-3.3,1.2-4.7c0.8-1.4,1.9-2.6,3.3-3.6c1.4-1,3-1.8,4.7-2.3
	c1.8-0.6,3.7-0.8,5.6-0.8c2,0,4,0.2,5.8,0.7c1.9,0.5,3.6,1.1,5.1,1.9c1.6,0.8,3.1,1.8,4.3,3l-5.8,6.5c-0.8-0.8-1.8-1.5-2.9-2.1
	c-1-0.6-2.1-1.2-3.2-1.5c-1.1-0.4-2.1-0.6-3.1-0.6c-0.7,0-1.3,0.1-1.9,0.2c-0.5,0.1-1,0.3-1.3,0.6c-0.4,0.2-0.6,0.5-0.8,0.9
	c-0.2,0.3-0.3,0.7-0.3,1.2c0,0.5,0.1,0.9,0.3,1.3c0.3,0.4,0.6,0.8,1.1,1c0.5,0.3,1.2,0.6,2.2,1c1,0.3,2.4,0.7,4.2,1.3
	c2.2,0.6,4.1,1.3,5.6,2c1.6,0.7,2.8,1.6,3.8,2.6c0.7,0.8,1.3,1.7,1.7,2.8c0.4,1,0.6,2.1,0.6,3.3c0,2.4-0.7,4.5-2,6.3
	c-1.3,1.8-3.1,3.2-5.4,4.3C272,89.6,269.3,90.1,266.3,90.1z"/>
<path class="st2" d="M300.9,90.2c-2.7,0-5.1-0.6-7-1.7c-1.9-1.2-3.4-2.9-4.5-5.1c-1-2.2-1.5-4.9-1.5-8V52.5h11.2v21.3
	c0,1.5,0.2,2.8,0.7,3.8c0.5,1.1,1.2,1.9,2.1,2.5c0.9,0.6,2,0.8,3.3,0.8c1,0,1.9-0.2,2.6-0.5c0.8-0.3,1.5-0.8,2.1-1.3
	c0.6-0.6,1.1-1.3,1.4-2c0.3-0.8,0.5-1.6,0.5-2.6V52.5h11.2v37h-10.5l-0.5-7.6l2.1-0.8c-0.6,1.8-1.5,3.3-2.8,4.7
	c-1.3,1.3-2.9,2.4-4.7,3.3C304.9,89.8,303,90.2,300.9,90.2z"/>
<path class="st2" d="M332.9,89.4v-37h10.6l0.3,6.7l-1.5,0.1c0.6-1.2,1.3-2.3,2.1-3.2c0.9-0.9,1.9-1.7,2.9-2.3
	c1.1-0.6,2.2-1.1,3.4-1.5c1.2-0.3,2.4-0.5,3.6-0.5c1.8,0,3.5,0.3,4.9,0.8c1.5,0.6,2.8,1.5,3.9,2.7c1.1,1.2,2,2.9,2.6,4.9l-1.7-0.1
	l0.6-1.1c0.6-1.1,1.4-2.1,2.3-3c1-0.9,2-1.7,3.2-2.3c1.2-0.6,2.4-1.1,3.6-1.5c1.3-0.3,2.5-0.5,3.6-0.5c2.9,0,5.4,0.6,7.3,1.7
	c1.9,1.1,3.4,2.8,4.4,5.1c1,2.3,1.5,5,1.5,8.3v22.5h-11.2V67.8c0-1.5-0.2-2.7-0.6-3.7c-0.4-1-1-1.7-1.9-2.2c-0.8-0.5-1.8-0.8-3-0.8
	c-1,0-1.9,0.2-2.7,0.5c-0.8,0.3-1.5,0.8-2.1,1.3c-0.6,0.6-1,1.2-1.3,1.9c-0.3,0.7-0.5,1.6-0.5,2.5v22h-11.2V67.7
	c0-1.4-0.2-2.6-0.6-3.5c-0.4-1-1-1.7-1.9-2.2s-1.8-0.8-2.9-0.8c-1,0-1.9,0.2-2.7,0.5c-0.8,0.3-1.5,0.8-2.1,1.3
	c-0.6,0.6-1,1.2-1.3,1.9c-0.3,0.7-0.5,1.6-0.5,2.4v22.1H332.9z"/>
<path class="st2" d="M417.5,90.1c-4.1,0-7.6-0.8-10.6-2.4c-3-1.7-5.4-3.9-7-6.8c-1.7-2.9-2.5-6.1-2.5-9.8c0-2.8,0.5-5.4,1.4-7.8
	c0.9-2.4,2.2-4.4,3.9-6.1c1.7-1.8,3.6-3.1,5.9-4c2.3-1,4.8-1.5,7.6-1.5c2.6,0,5,0.5,7.1,1.4c2.2,0.9,4.1,2.2,5.6,3.9
	c1.6,1.7,2.8,3.6,3.6,5.9s1.2,4.8,1.1,7.4l-0.1,3h-29.4l-1.6-6.3h22l-1.2,1.3V67c-0.1-1.2-0.5-2.2-1.1-3.1c-0.6-0.9-1.4-1.6-2.4-2.2
	c-1-0.5-2.2-0.8-3.5-0.8c-1.8,0-3.4,0.4-4.7,1.1c-1.3,0.7-2.2,1.7-2.9,3.1c-0.6,1.3-1,3-1,5c0,2,0.4,3.8,1.3,5.4
	c0.9,1.5,2.1,2.6,3.8,3.5c1.7,0.8,3.6,1.3,5.9,1.3c1.6,0,3-0.2,4.2-0.7c1.3-0.5,2.6-1.3,4-2.4l5.2,7.4c-1.4,1.3-3,2.3-4.6,3.1
	c-1.6,0.8-3.3,1.4-5,1.7C420.9,89.9,419.2,90.1,417.5,90.1z"/>
<path class="st2" d="M462.9,89.4V40.7h21.5c3.3,0,6.2,0.5,8.5,1.5c2.3,0.9,4.1,2.3,5.2,4.1c1.2,1.8,1.8,3.9,1.8,6.4
	c0,2.8-0.7,5.1-2.1,7c-1.3,1.9-3.3,3.2-5.9,3.8l-0.1-1.3c2.2,0.5,4.1,1.3,5.6,2.4c1.6,1.2,2.9,2.6,3.8,4.3c0.9,1.7,1.3,3.6,1.3,5.7
	c0,2.5-0.4,4.6-1.3,6.5c-0.8,1.8-2,3.3-3.6,4.6c-1.6,1.3-3.4,2.2-5.6,2.8c-2.1,0.6-4.4,0.9-7,0.9H462.9z M474,79.5h10.6
	c1.3,0,2.4-0.2,3.3-0.6c0.9-0.4,1.6-1,2.2-1.8c0.5-0.8,0.8-1.8,0.8-3c0-1.1-0.3-2-0.8-2.7c-0.5-0.7-1.3-1.3-2.2-1.7
	c-1-0.4-2.1-0.6-3.5-0.6H474V79.5z M474,60.3h8.7c1.2,0,2.2-0.2,3.1-0.6c0.9-0.4,1.5-1,1.9-1.7c0.5-0.7,0.7-1.6,0.7-2.6
	c0-1.5-0.5-2.6-1.5-3.5c-1-0.9-2.6-1.3-4.6-1.3H474V60.3z"/>
<path class="st2" d="M523.1,90.2c-2.7,0-5.1-0.6-7-1.7c-1.9-1.2-3.4-2.9-4.5-5.1c-1-2.2-1.5-4.9-1.5-8V52.5h11.2v21.3
	c0,1.5,0.2,2.8,0.7,3.8c0.5,1.1,1.2,1.9,2.1,2.5c0.9,0.6,2,0.8,3.3,0.8c1,0,1.9-0.2,2.6-0.5c0.8-0.3,1.5-0.8,2.1-1.3
	c0.6-0.6,1.1-1.3,1.4-2c0.3-0.8,0.5-1.6,0.5-2.6V52.5h11.2v37h-10.5l-0.5-7.6l2.1-0.8c-0.6,1.8-1.5,3.3-2.8,4.7
	c-1.3,1.3-2.9,2.4-4.7,3.3C527.1,89.8,525.1,90.2,523.1,90.2z"/>
<path class="st2" d="M555.8,89.4v-37h11.1v37H555.8z M561.4,45.2c-2.1,0-3.7-0.5-4.9-1.5c-1.2-1-1.7-2.5-1.7-4.3
	c0-1.7,0.6-3,1.8-4.1c1.2-1.1,2.8-1.6,4.9-1.6c2.1,0,3.7,0.5,4.9,1.5c1.2,1,1.7,2.4,1.7,4.2c0,1.7-0.6,3.1-1.8,4.2
	C565,44.6,563.4,45.2,561.4,45.2z"/>
<path class="st2" d="M577.5,89.4V37.9h11.1v51.5H577.5z"/>
<path class="st2" d="M611.8,90.2c-3.2,0-6.1-0.8-8.6-2.4c-2.5-1.7-4.4-3.9-5.8-6.8c-1.4-2.9-2.2-6.2-2.2-10c0-3.7,0.7-7,2.2-9.9
	c1.4-2.9,3.4-5.2,5.9-6.9c2.5-1.7,5.4-2.5,8.6-2.5c1.7,0,3.3,0.3,4.8,0.8c1.5,0.5,2.9,1.2,4.2,2.1c1.3,0.9,2.3,1.9,3.1,3.1
	c0.8,1.1,1.3,2.3,1.4,3.5l-2.6,0.6V37.9H634v51.5h-10.4L623,81l2.2,0.3c-0.1,1.2-0.6,2.3-1.4,3.3c-0.7,1.1-1.7,2-2.9,2.9
	c-1.2,0.8-2.6,1.4-4.2,1.9C615.2,89.9,613.5,90.2,611.8,90.2z M614.7,80.9c1.7,0,3.2-0.4,4.5-1.3c1.3-0.8,2.2-2,2.9-3.5
	c0.7-1.5,1-3.2,1-5.2c0-2-0.3-3.8-1-5.3c-0.6-1.5-1.6-2.6-2.9-3.5c-1.3-0.8-2.7-1.3-4.5-1.3s-3.2,0.4-4.5,1.3
	c-1.2,0.8-2.2,2-2.9,3.5c-0.7,1.5-1,3.2-1,5.3c0,2,0.3,3.7,1,5.2c0.7,1.5,1.6,2.6,2.9,3.5C611.5,80.5,613,80.9,614.7,80.9z"/>
<path class="st2" d="M661,90.1c-4.1,0-7.6-0.8-10.6-2.4c-3-1.7-5.4-3.9-7-6.8c-1.7-2.9-2.5-6.1-2.5-9.8c0-2.8,0.5-5.4,1.4-7.8
	c0.9-2.4,2.2-4.4,3.9-6.1c1.7-1.8,3.6-3.1,5.9-4c2.3-1,4.8-1.5,7.6-1.5c2.6,0,5,0.5,7.1,1.4c2.2,0.9,4.1,2.2,5.6,3.9
	c1.6,1.7,2.8,3.6,3.6,5.9c0.8,2.3,1.2,4.8,1.1,7.4l-0.1,3h-29.4l-1.6-6.3h22l-1.2,1.3V67c-0.1-1.2-0.5-2.2-1.1-3.1
	c-0.6-0.9-1.4-1.6-2.4-2.2c-1-0.5-2.2-0.8-3.5-0.8c-1.8,0-3.4,0.4-4.7,1.1c-1.3,0.7-2.2,1.7-2.9,3.1c-0.7,1.3-1,3-1,5
	c0,2,0.4,3.8,1.3,5.4c0.9,1.5,2.1,2.6,3.8,3.5c1.7,0.8,3.6,1.3,5.9,1.3c1.6,0,3-0.2,4.2-0.7c1.3-0.5,2.6-1.3,4-2.4l5.2,7.4
	c-1.4,1.3-3,2.3-4.6,3.1c-1.6,0.8-3.3,1.4-5,1.7C664.3,89.9,662.7,90.1,661,90.1z"/>
<path class="st2" d="M684.2,89.4v-37h10.6l0.5,12l-2.1-2.3c0.6-2,1.5-3.8,2.7-5.4c1.3-1.6,2.8-2.8,4.5-3.8c1.7-0.9,3.5-1.4,5.5-1.4
	c0.8,0,1.6,0.1,2.3,0.2c0.7,0.1,1.4,0.3,2,0.5l-3.1,12.3c-0.5-0.3-1.2-0.6-2.1-0.8c-0.8-0.2-1.7-0.3-2.6-0.3c-1,0-2,0.2-2.9,0.6
	c-0.9,0.3-1.6,0.8-2.2,1.5c-0.6,0.6-1.1,1.4-1.5,2.3c-0.3,0.9-0.5,1.9-0.5,3v18.5H684.2z"/>
</svg>
